<svg enable-background="new 0 0 851.6 139.6" viewBox="0 0 851.6 139.6" xmlns="http://www.w3.org/2000/svg"><path d="m124.5 90.4 3.5-8.2c3.8 2.8 8.9 4.3 13.9 4.3 3.7 0 6-1.4 6-3.6-.1-6-22.2-1.3-22.3-16.5-.1-7.7 6.8-13.6 16.5-13.6 5.8 0 11.5 1.4 15.6 4.7l-3.3 8.4c-3.8-2.4-8.4-4.1-12.9-4.1-3 0-5 1.4-5 3.3.1 5.9 22.3 2.7 22.6 17.2 0 7.9-6.7 13.4-16.2 13.4-7-.1-13.5-1.8-18.4-5.3"/><path d="m260.2 79.2c-1.8 3.1-5.1 5.2-8.9 5.2-5.6 0-10.2-4.6-10.2-10.2s4.5-10.2 10.2-10.2c3.8 0 7.1 2.1 8.9 5.2l9.8-5.4c-3.7-6.5-10.6-10.9-18.7-10.9-11.8 0-21.4 9.6-21.4 21.4s9.6 21.4 21.4 21.4c8 0 15-4.4 18.7-10.9z"/><path d="m164 35h12.2v59.7h-12.2z"/><path d="m274.7 35v59.7h12.2v-17.9l14.5 17.9h15.6l-18.4-21.2 17.1-19.9h-15l-13.8 16.5v-35.1z"/><path d="m212.5 79.3c-1.8 2.9-5.4 5.1-9.5 5.1-5.6 0-10.2-4.6-10.2-10.2s4.5-10.2 10.1-10.2c4.1 0 7.8 2.3 9.5 5.3v10zm0-25.7v4.9c-2-3.3-6.9-5.7-12.1-5.7-10.7 0-19.2 9.5-19.2 21.3 0 11.9 8.4 21.4 19.2 21.4 5.2 0 10.1-2.3 12.1-5.7v4.9h12.2v-41.1z"/><path d="m49 79.2c0 4.2-3.4 7.5-7.5 7.5s-7.5-3.4-7.5-7.5 3.4-7.5 7.5-7.5h7.5z" fill="#e01e5a"/><path d="m52.8 79.2c0-4.2 3.4-7.5 7.5-7.5s7.5 3.4 7.5 7.5v18.9c0 4.2-3.4 7.5-7.5 7.5s-7.5-3.4-7.5-7.5z" fill="#e01e5a"/><path d="m60.4 49c-4.2 0-7.5-3.4-7.5-7.5s3.4-7.5 7.5-7.5 7.5 3.4 7.5 7.5v7.5z" fill="#36c5f0"/><path d="m60.4 52.8c4.2 0 7.5 3.4 7.5 7.5s-3.4 7.5-7.5 7.5h-18.9c-4.2 0-7.5-3.4-7.5-7.5s3.4-7.5 7.5-7.5z" fill="#36c5f0"/><path d="m90.5 60.4c0-4.2 3.4-7.5 7.5-7.5 4.2 0 7.5 3.4 7.5 7.5s-3.4 7.5-7.5 7.5h-7.5z" fill="#2eb67d"/><path d="m86.8 60.4c0 4.2-3.4 7.5-7.5 7.5s-7.5-3.4-7.5-7.5v-18.9c0-4.2 3.4-7.5 7.5-7.5s7.5 3.4 7.5 7.5z" fill="#2eb67d"/><path d="m79.2 90.5c4.2 0 7.5 3.4 7.5 7.5 0 4.2-3.4 7.5-7.5 7.5s-7.5-3.4-7.5-7.5v-7.5z" fill="#ecb22e"/><path d="m79.2 86.8c-4.2 0-7.5-3.4-7.5-7.5s3.4-7.5 7.5-7.5h18.9c4.2 0 7.5 3.4 7.5 7.5s-3.4 7.5-7.5 7.5z" fill="#ecb22e"/><path d="m124.5 90.4 3.5-8.2c3.8 2.8 8.9 4.3 13.9 4.3 3.7 0 6-1.4 6-3.6-.1-6-22.2-1.3-22.3-16.5-.1-7.7 6.8-13.6 16.5-13.6 5.8 0 11.5 1.4 15.6 4.7l-3.3 8.4c-3.8-2.4-8.4-4.1-12.9-4.1-3 0-5 1.4-5 3.3.1 5.9 22.3 2.7 22.6 17.2 0 7.9-6.7 13.4-16.2 13.4-7.1-.1-13.5-1.8-18.4-5.3"/><path d="m260.2 79.2c-1.8 3.1-5.1 5.2-8.9 5.2-5.6 0-10.2-4.6-10.2-10.2s4.5-10.2 10.2-10.2c3.8 0 7.1 2.1 8.9 5.2l9.8-5.4c-3.7-6.5-10.6-10.9-18.7-10.9-11.8 0-21.4 9.6-21.4 21.4s9.6 21.4 21.4 21.4c8 0 15-4.4 18.7-10.9z"/><path d="m164 35h12.2v59.7h-12.2z"/><path d="m274.7 35v59.7h12.2v-17.9l14.5 17.9h15.6l-18.4-21.2 17-19.9h-14.9l-13.8 16.5v-35.1z"/><path d="m212.5 79.3c-1.8 2.9-5.4 5.1-9.5 5.1-5.6 0-10.2-4.6-10.2-10.2s4.5-10.2 10.1-10.2c4.1 0 7.8 2.3 9.5 5.3v10zm0-25.7v4.9c-2-3.3-6.9-5.7-12.1-5.7-10.7 0-19.2 9.5-19.2 21.3 0 11.9 8.4 21.4 19.2 21.4 5.2 0 10.1-2.3 12.1-5.7v4.9h12.2v-41.1z"/><path d="m49 79.2c0 4.2-3.4 7.5-7.5 7.5s-7.5-3.4-7.5-7.5 3.4-7.5 7.5-7.5h7.5z" fill="#e01e5a"/><path d="m52.8 79.2c0-4.2 3.4-7.5 7.5-7.5s7.5 3.4 7.5 7.5v18.9c0 4.2-3.4 7.5-7.5 7.5s-7.5-3.4-7.5-7.5z" fill="#e01e5a"/><path d="m60.3 49c-4.2 0-7.5-3.4-7.5-7.5s3.4-7.5 7.5-7.5 7.5 3.4 7.5 7.5v7.5z" fill="#36c5f0"/><path d="m60.3 52.8c4.2 0 7.5 3.4 7.5 7.5s-3.4 7.5-7.5 7.5h-18.8c-4.2 0-7.5-3.4-7.5-7.5s3.4-7.5 7.5-7.5z" fill="#36c5f0"/><path d="m90.5 60.4c0-4.2 3.4-7.5 7.5-7.5 4.2 0 7.5 3.4 7.5 7.5s-3.4 7.5-7.5 7.5h-7.5z" fill="#2eb67d"/><path d="m86.7 60.4c0 4.2-3.4 7.5-7.5 7.5-4.2 0-7.5-3.4-7.5-7.5v-18.9c0-4.2 3.4-7.5 7.5-7.5 4.2 0 7.5 3.4 7.5 7.5z" fill="#2eb67d"/><path d="m79.2 90.5c4.2 0 7.5 3.4 7.5 7.5 0 4.2-3.4 7.5-7.5 7.5-4.2 0-7.5-3.4-7.5-7.5v-7.5z" fill="#ecb22e"/><path d="m79.2 86.8c-4.2 0-7.5-3.4-7.5-7.5s3.4-7.5 7.5-7.5h18.9c4.2 0 7.5 3.4 7.5 7.5s-3.4 7.5-7.5 7.5z" fill="#ecb22e"/><path d="m376.6 53.7v41h-6.2v-6.4c-2.4 4.1-8.4 7.3-14.4 7.3-11.7 0-20.5-9.3-20.5-21.4s8.9-21.3 20.5-21.3c6 0 12.1 3.1 14.4 7.3v-6.4h6.2zm-6.1 28.6v-16.1c-2.4-4.5-7.9-7.6-13.3-7.6-8.8 0-15.5 6.6-15.5 15.5 0 9 6.7 15.6 15.5 15.6 5.3 0 10.8-3.1 13.3-7.4z"/><path d="m427.1 74.2c0 12.1-8.9 21.4-20.4 21.4-6 0-12.1-3.1-14.4-7.3v22h-6.2v-56.6h6.2v6.3c2.4-4.1 8.5-7.2 14.4-7.2 11.5 0 20.4 9.2 20.4 21.4zm-6.1 0c0-9-6.7-15.6-15.5-15.6-5.4 0-10.9 3.1-13.3 7.5v16.1c2.4 4.4 7.9 7.5 13.3 7.5 8.9 0 15.5-6.6 15.5-15.5z"/><path d="m475.3 74.2c0 12.1-8.9 21.4-20.4 21.4-6 0-12.1-3.1-14.4-7.3v22h-6.2v-56.6h6.2v6.3c2.4-4.1 8.5-7.2 14.4-7.2 11.5 0 20.4 9.2 20.4 21.4zm-6.1 0c0-9-6.7-15.6-15.5-15.6-5.4 0-10.9 3.1-13.3 7.5v16.1c2.4 4.4 7.9 7.5 13.3 7.5 8.8 0 15.5-6.6 15.5-15.5z"/><path d="m541.9 35.6v59.1h-6.2v-6.4c-2.4 4.1-8.4 7.3-14.4 7.3-11.7 0-20.5-9.3-20.5-21.4s8.9-21.3 20.5-21.3c6 0 12.1 3.1 14.4 7.3v-24.6zm-6.2 46.7v-16.1c-2.4-4.5-7.9-7.6-13.3-7.6-8.8 0-15.5 6.6-15.5 15.5 0 9 6.7 15.6 15.5 15.6 5.4 0 10.9-3.1 13.3-7.4z"/><path d="m559 40.2c0 2.4-2.1 4.5-4.5 4.5s-4.4-2-4.4-4.5c0-2.4 1.9-4.4 4.4-4.4 2.4 0 4.5 2 4.5 4.4zm-1.5 13.5v41h-6.2v-41z"/><path d="m588.6 53.4-.3 5.8c-1.3-.5-3-.8-4.4-.8-3.6 0-8.2 3-10.8 7.9v28.3h-6.2v-41h6.2v6.5c2.3-4.5 7-7.3 11.2-7.3 1.7 0 3.2.3 4.3.6z"/><path d="m629.9 74.9h-34.3c.5 9.1 6.7 15.1 15.1 15.1 5.9 0 11-2.5 13.3-6.8l4.9 3.1c-3.1 5.7-10 9.2-18.4 9.2-11.6 0-20.9-9.2-20.9-21.6 0-11.8 9.2-21.1 20.9-21.1 11.1 0 19.6 8.5 19.6 19.5 0 .8-.1 1.7-.2 2.6zm-6.2-4.9c-.5-7-6.2-12.1-13.5-12.1s-12.8 4.9-14.3 12.1z"/><path d="m655.9 95.5c-11.9 0-21.3-9.3-21.3-21.4s9.3-21.4 21.3-21.4c7.9 0 14.5 3.9 17.2 9.9l-5.2 2.8c-1.8-4.1-6.5-6.8-12-6.8-8.7 0-15.2 6.8-15.2 15.5s6.6 15.5 15.2 15.5c5.8 0 10.7-2.7 13.1-7.3l5.3 2.5c-3.2 6.6-10.1 10.7-18.4 10.7z"/><path d="m702.2 94.4c-1.1.4-2.5.7-3.9.7-8.3 0-14.2-5.3-14.2-14.8v-20.9h-8.2v-5.7h8.2v-11.4h6.1v11.3h11.6v5.7h-11.6v20.7c0 6 3.9 9.4 8.9 9.4.8 0 1.9-.2 2.7-.4z"/><path d="m745.9 74.2c0 12.1-9.4 21.4-21.3 21.4s-21.2-9.3-21.2-21.4 9.3-21.4 21.2-21.4 21.3 9.3 21.3 21.4zm-36.4 0c0 8.7 6.6 15.5 15.1 15.5s15.2-6.8 15.2-15.5c0-8.8-6.7-15.5-15.2-15.5s-15.1 6.7-15.1 15.5z"/><path d="m774.6 53.4-.3 5.8c-1.3-.5-3-.8-4.4-.8-3.6 0-8.2 3-10.8 7.9v28.3h-6.2v-41h6.2v6.5c2.3-4.5 7-7.3 11.2-7.3 1.6 0 3.2.3 4.3.6z"/><path d="m817.7 53.7-23.7 56.5h-6.6l7.1-16.3-17-40.3h6.7l13.4 33.1 13.5-33.1h6.6z"/></svg>