<?xml version="1.0" encoding="iso-8859-1"?>
<!-- Generator: Adobe Illustrator 19.1.0, SVG Export Plug-In . SVG Version: 6.00 Build 0)  -->
<svg version="1.1" id="Capa_1" xmlns="http://www.w3.org/2000/svg" xmlns:xlink="http://www.w3.org/1999/xlink" x="0px" y="0px"
	 viewBox="0 0 194.666 194.666" style="enable-background:new 0 0 194.666 194.666;" xml:space="preserve">
<path d="M64.213,177.752c-0.727,0-1.123-0.017-1.149-0.019c-0.543,0.009-1.084,0.013-1.622,0.013
	c-36.503,0-60.885-18.507-61.131-18.697c-0.273-0.211-0.381-0.575-0.265-0.9c0.116-0.327,0.454-0.523,0.774-0.532
	c22.349,0.563,36.568-3.957,44.543-7.857c6.112-2.989,9.597-6.073,11.117-7.63c-16.154-2.843-25.243-10.203-30.055-15.963
	c-5.396-6.46-6.711-12.234-6.764-12.477c-0.052-0.237,0.006-0.484,0.158-0.673c0.151-0.189,0.381-0.299,0.623-0.299H34.39
	c-15.188-6.093-21.935-15.725-24.929-23.03c-3.546-8.65-2.756-15.811-2.721-16.111c0.033-0.28,0.212-0.523,0.471-0.638
	c0.258-0.114,0.56-0.085,0.789,0.08c5.352,3.819,11.593,4.123,14.745,3.98C-4.267,56.541,11.707,24.247,11.874,23.917
	c0.121-0.238,0.353-0.4,0.618-0.432c0.268-0.032,0.529,0.071,0.703,0.273c39.276,45.915,75.079,42.257,80.458,41.397
	c-1.188-11.787-0.312-27.774,10.119-38.555c6.412-6.626,13.312-8.096,13.603-8.155c27.652-5.936,45.22,7.131,48.013,9.403
	l23.129-9.36c0.269-0.109,0.575-0.064,0.8,0.117c0.227,0.181,0.337,0.47,0.289,0.756c-1.296,7.763-9.71,15.652-14.044,19.263
	l18.159-3.346c0.348-0.065,0.705,0.113,0.862,0.435c0.158,0.322,0.083,0.71-0.185,0.949L173.36,55.485
	c0.514,8.233,1.522,26.759-6.82,46.556c-17.209,40.838-44.409,59.244-64.195,67.494C84.019,177.176,68.47,177.752,64.213,177.752z
	 M63.091,176.135c0.225,0.009,17.573,0.724,38.707-8.105c19.487-8.142,46.282-26.307,63.267-66.609
	c8.33-19.768,7.17-38.307,6.674-46.223c-0.015-0.244,0.083-0.482,0.266-0.646l19.205-17.182l-18.527,3.414
	c-0.359,0.064-0.731-0.127-0.879-0.471c-0.148-0.343-0.039-0.742,0.263-0.962c0.136-0.1,12.969-9.571,15.631-18.804l-22.154,8.966
	c-0.285,0.117-0.61,0.057-0.836-0.147c-0.044-0.039-4.452-3.969-12.418-7.066c-7.342-2.855-19.301-5.569-34.585-2.286
	c-0.274,0.057-26.733,6-22.382,45.71c0.045,0.402-0.22,0.774-0.614,0.866c-0.402,0.095-10.05,2.245-25.153-1.829
	c-13.703-3.695-34.605-13.47-56.761-39.015c-1.124,2.583-3.76,9.435-4.18,17.714c-0.711,14.019,4.934,25.283,16.777,33.48
	c0.267,0.185,0.396,0.513,0.326,0.829c-0.069,0.317-0.323,0.561-0.643,0.617c-0.383,0.065-9.059,1.525-16.833-3.286
	c-0.19,5.75,1.083,28.017,30.97,37.656c0.375,0.121,0.606,0.497,0.545,0.886c-0.061,0.39-0.396,0.676-0.79,0.676H21.508
	c1.426,4.372,8.88,22.157,36.662,26.469c0.277,0.044,0.512,0.229,0.618,0.489c0.105,0.261,0.067,0.557-0.102,0.781
	c-0.542,0.725-13.393,17.208-53.951,17.21c-0.438,0-0.878-0.002-1.321-0.006C10.153,163.704,32.446,176.605,63.091,176.135z"/>
<g>
</g>
<g>
</g>
<g>
</g>
<g>
</g>
<g>
</g>
<g>
</g>
<g>
</g>
<g>
</g>
<g>
</g>
<g>
</g>
<g>
</g>
<g>
</g>
<g>
</g>
<g>
</g>
<g>
</g>
</svg>
